<?xml version="1.0" encoding="UTF-8"?>
<svg id="Layer_2" data-name="Layer 2" xmlns="http://www.w3.org/2000/svg" viewBox="0 0 1920 1080">
  <defs>
    <style>
      .cls-1 {
        fill: #666;
        stroke-width: 0px;
        transition: filter 0.3s ease; /* Smooth transition for the filter */
      }
      .cls-1:hover {
        filter: drop-shadow(0 0 8px #9FB873); /* Glow effect with a light green color */
      }
    </style>

  </defs>
  <path class="cls-1" d="m1292.66,894.62h-59.35c-32.04,0-58.01-25.97-58.01-58.01V243.39c0-32.04,25.97-58.01,58.01-58.01h59.35c-20.07,4.25-53.63,14.48-63.51,39.69-4.57,11.65-6.57,30.67-6.57,56.87v516.12c0,26.2,2,45.22,6.57,56.87,9.88,25.21,43.44,35.44,63.51,39.69Z"/>
  <path class="cls-1" d="m625.45,185.38h59.35c32.04,0,58.01,25.97,58.01,58.01v593.22c0,32.04-25.97,58.01-58.01,58.01h-59.35c20.07-4.25,53.63-14.48,63.51-39.69,4.57-11.65,6.57-30.67,6.57-56.87V281.94c0-26.2-2-45.22-6.57-56.87-9.88-25.21-43.44-35.44-63.51-39.69Z"/>
  <path class="cls-1" d="m1272.98,906.47h-33.41c-42.04,0-76.11-34.08-76.11-76.11V249.65c0-42.04,34.08-76.11,76.11-76.11h33.41c30.31,0,60.09-8.57,85.41-25.23,2.99-1.96,5.2-3.59,6.42-4.81l-159.5,2.64c-44.49.73-82.08,35.31-84.18,79.76-.06,1.46-.1,2.95-.1,4.41v.38c0,12.51-.51,25.05-.51,51.25v117.68c-47.73-13.72-94.34-20.58-139.87-20.58-51.06,0-89.64,6.86-115.77,20.54-26.55,14-39.82,32.48-39.82,55.41,0,20.39,8.99,35.82,26.96,46.33,17.56,10.19,49,19.43,94.34,27.72,76.75,14,125.55,31.05,146.38,51.12,13.65,13.11,22.93,27.12,27.78,41.95v175.95c0,26.2.51,38.74.51,51.25v.38c0,1.46.03,2.95.1,4.41,2.1,44.45,39.69,79.03,84.18,79.76l159.5,2.64c-1.22-1.22-3.43-2.85-6.42-4.81-25.32-16.65-55.1-25.23-85.41-25.23Zm-153.91-358.78c-23.28-20.39-74.52-37.12-153.72-50.17-38.39-6.38-64.11-12.42-77.19-18.16-13.88-6.03-20.83-14.64-20.83-25.78,0-14.64,9.4-25.97,28.2-33.91,19.18-7.65,41.22-11.46,66.14-11.46,31.85,0,63.28,7.3,94.31,21.97.29.14.57.27.86.41,39.24,18.92,63.7,59.18,63.7,102.75v15.66c-.48-.44-.98-.86-1.46-1.3Z"/>
  <path class="cls-1" d="m647.02,173.53h33.41c42.04,0,76.11,34.08,76.11,76.11v580.7c0,42.04-34.08,76.11-76.11,76.11h-33.41c-30.31,0-60.09,8.57-85.41,25.23-2.99,1.96-5.2,3.59-6.42,4.81l159.5-2.64c44.49-.73,82.08-35.31,84.18-79.76.06-1.46.1-2.95.1-4.41v-.38c0-12.51.51-25.05.51-51.25v-117.68c47.73,13.72,94.34,20.58,139.87,20.58,51.06,0,89.64-6.86,115.77-20.54,26.55-14,39.82-32.48,39.82-55.41,0-20.39-8.99-35.82-26.96-46.33-17.56-10.19-49-19.43-94.34-27.72-76.75-14-125.55-31.05-146.38-51.12-.14-.13-.27-.26-.41-.39-17.74-17.17-27.38-41.07-27.38-65.76v-151.73c0-26.2-.51-38.74-.51-51.25v-.38c0-1.46-.03-2.95-.1-4.41-2.1-44.45-39.69-79.03-84.18-79.76l-159.5-2.64c1.22,1.22,3.43,2.85,6.42,4.81,25.32,16.65,55.1,25.23,85.41,25.23Zm153.91,358.78c23.28,20.39,74.52,37.12,153.72,50.17,38.39,6.38,64.11,12.42,77.19,18.16,13.88,6.03,20.83,14.64,20.83,25.78,0,14.64-9.4,25.97-28.2,33.91-19.18,7.65-41.22,11.46-66.14,11.46-31.85,0-63.28-7.3-94.31-21.97-.29-.14-.57-.27-.86-.41-39.24-18.92-63.7-59.18-63.7-102.75v-15.66c.48.44.98.86,1.46,1.3Z"/>
</svg>